<svg width="224" height="177" viewBox="0 0 224 177" fill="none" xmlns="http://www.w3.org/2000/svg">
<path fill-rule="evenodd" clip-rule="evenodd" d="M134.207 5.55441C123.981 5.55441 115.692 13.8437 115.692 24.0691C115.692 34.2945 123.981 42.5839 134.207 42.5839C144.432 42.5839 152.721 34.2945 152.721 24.0691H158.276C158.276 24.8498 158.239 25.6218 158.166 26.3835H158.183V39.8067C158.183 63.0694 139.325 81.9276 116.062 81.9276H109.304H109.119H102.361C79.0979 81.9276 60.2397 63.0694 60.2397 39.8067V26.3835H60.2575C60.1848 25.6218 60.1476 24.8498 60.1476 24.0691H65.7021C65.7021 34.2945 73.9914 42.5839 84.2168 42.5839C94.4422 42.5839 102.731 34.2945 102.731 24.0691C102.731 13.8437 94.4422 5.55441 84.2168 5.55441C79.7848 5.55441 75.7232 7.10814 72.5361 9.70315L69.0291 5.39591C73.1707 2.02373 78.4611 0 84.2168 0C97.5098 0 108.286 10.7761 108.286 24.0691C108.286 37.3621 97.5098 48.1383 84.2168 48.1383C76.8238 48.1383 70.2093 44.8051 65.7941 39.5596V39.8067C65.7941 60.0018 82.1656 76.3732 102.361 76.3732H109.119H109.304H116.062C136.257 76.3732 152.629 60.0018 152.629 39.8067V39.5604C148.213 44.8055 141.599 48.1383 134.207 48.1383C120.914 48.1383 110.138 37.3621 110.138 24.0691C110.138 10.7761 120.914 0 134.207 0C139.962 0 145.253 2.02373 149.394 5.39591L145.887 9.70315C142.7 7.10814 138.639 5.55441 134.207 5.55441ZM151.333 17.5894L191.139 17.5894V12.035L151.333 12.035V17.5894ZM137.908 24.0704C137.908 26.1155 136.25 27.7733 134.205 27.7733C132.16 27.7733 130.502 26.1155 130.502 24.0704C130.502 22.0253 132.16 20.3675 134.205 20.3675C136.25 20.3675 137.908 22.0253 137.908 24.0704ZM143.463 24.0704C143.463 29.1831 139.318 33.3278 134.205 33.3278C129.093 33.3278 124.948 29.1831 124.948 24.0704C124.948 18.9577 129.093 14.813 134.205 14.813C139.318 14.813 143.463 18.9577 143.463 24.0704ZM191.139 29.623H162.905V24.0686H191.268C196.065 23.9999 199.934 20.0892 199.934 15.2751V12.035H205.488V15.2751C205.488 20.0246 203.18 24.2351 199.625 26.8467C203.18 29.4583 205.488 33.6689 205.488 38.4184V41.6585H199.934V38.4184C199.934 33.5692 196.009 29.6366 191.163 29.6239L191.139 29.624V29.623ZM162.905 41.658H191.139V36.1036H162.905V41.658ZM18.49 12.035V15.2751C18.49 20.0892 22.358 23.9998 27.1558 24.0686H55.5183V29.623H27.2845V29.6239V29.624L27.2549 29.6239C22.4114 29.6398 18.49 33.5712 18.49 38.4184V41.6585H12.9355V38.4184C12.9355 33.6689 15.2431 29.4583 18.7983 26.8467C15.2431 24.2351 12.9355 20.0246 12.9355 15.2751V12.035H18.49ZM80.5126 24.0704C80.5126 26.1155 82.1704 27.7733 84.2155 27.7733C86.2606 27.7733 87.9184 26.1155 87.9184 24.0704C87.9184 22.0253 86.2606 20.3675 84.2155 20.3675C82.1704 20.3675 80.5126 22.0253 80.5126 24.0704ZM74.9581 24.0704C74.9581 29.1831 79.1028 33.3278 84.2155 33.3278C89.3282 33.3278 93.4729 29.1831 93.4729 24.0704C93.4729 18.9577 89.3282 14.813 84.2155 14.813C79.1028 14.813 74.9581 18.9577 74.9581 24.0704ZM67.0911 17.5894L27.2844 17.5894L27.2845 12.035L67.0911 12.035V17.5894ZM27.2833 41.658H55.5183V36.1036H27.2833V41.658Z" fill="white"/>
<path d="M12.7075 144.728C15.018 144.728 17.0619 144.256 18.8391 143.313C20.6164 142.371 22.0086 141.075 23.0157 139.425C24.0229 137.775 24.5264 135.904 24.5264 133.813V110.967H19.0169V113.751C17.1803 111.541 14.707 110.437 11.5967 110.437C9.37513 110.437 7.39051 110.952 5.64285 111.983C3.8952 112.985 2.51781 114.37 1.51069 116.137C0.503562 117.905 0 119.923 0 122.191C0 124.43 0.503562 126.448 1.51069 128.245C2.51781 130.042 3.91001 131.456 5.68729 132.487C7.46456 133.518 9.47881 134.034 11.73 134.034C14.6625 134.034 16.9878 133.091 18.7058 131.206V133.813C18.7058 135.58 18.143 136.95 17.0174 137.922C15.8918 138.924 14.4552 139.425 12.7075 139.425C11.1672 139.425 9.86389 139.071 8.79752 138.364C7.76078 137.687 7.06468 136.788 6.70922 135.669L1.28853 137.701C2.05868 139.823 3.46569 141.516 5.50956 142.783C7.58305 144.079 9.98237 144.728 12.7075 144.728ZM12.4409 128.687C10.5748 128.687 9.03449 128.083 7.82002 126.875C6.63517 125.638 6.04274 124.091 6.04274 122.235C6.04274 120.998 6.30933 119.893 6.84251 118.921C7.40532 117.919 8.17547 117.139 9.15298 116.579C10.1305 116.019 11.2265 115.739 12.4409 115.739C14.2775 115.739 15.7733 116.358 16.9286 117.595C18.1134 118.803 18.7058 120.35 18.7058 122.235C18.7058 124.121 18.1134 125.667 16.9286 126.875C15.7733 128.083 14.2775 128.687 12.4409 128.687Z" fill="white"/>
<path d="M45.4247 135.536C47.8833 135.536 50.0308 134.991 51.8673 133.901C53.7335 132.782 55.0368 131.368 55.7773 129.659L51.0675 127.361C50.5344 128.274 49.7938 129.026 48.846 129.615C47.9277 130.175 46.8021 130.454 45.4691 130.454C43.7215 130.454 42.2552 129.924 41.0704 128.864C39.8855 127.803 39.2042 126.389 39.0265 124.621H56.4438C56.5623 124.297 56.6363 123.929 56.666 123.517C56.7252 123.075 56.7548 122.633 56.7548 122.191C56.7548 120.041 56.2957 118.081 55.3774 116.314C54.4592 114.546 53.1262 113.132 51.3786 112.072C49.6309 110.982 47.4982 110.437 44.9804 110.437C42.7292 110.437 40.6853 110.982 38.8488 112.072C37.0419 113.162 35.6052 114.649 34.5389 116.535C33.5021 118.391 32.9838 120.527 32.9838 122.942C32.9838 125.27 33.5021 127.391 34.5389 129.306C35.5756 131.22 37.0271 132.738 38.8932 133.857C40.7593 134.976 42.9365 135.536 45.4247 135.536ZM44.9804 115.209C46.5207 115.209 47.7944 115.681 48.8015 116.623C49.8383 117.536 50.4159 118.73 50.5344 120.203H39.1598C39.4856 118.612 40.1669 117.389 41.2037 116.535C42.27 115.651 43.5289 115.209 44.9804 115.209Z" fill="white"/>
<path d="M76.6294 135.536C79.088 135.536 81.2355 134.991 83.0721 133.901C84.9382 132.782 86.2415 131.368 86.9821 129.659L82.2723 127.361C81.7391 128.274 80.9986 129.026 80.0507 129.615C79.1324 130.175 78.0068 130.454 76.6739 130.454C74.9262 130.454 73.46 129.924 72.2751 128.864C71.0903 127.803 70.409 126.389 70.2312 124.621H87.6486C87.767 124.297 87.8411 123.929 87.8707 123.517C87.9299 123.075 87.9596 122.633 87.9596 122.191C87.9596 120.041 87.5004 118.081 86.5822 116.314C85.6639 114.546 84.331 113.132 82.5833 112.072C80.8357 110.982 78.7029 110.437 76.1851 110.437C73.9339 110.437 71.89 110.982 70.0535 112.072C68.2466 113.162 66.81 114.649 65.7436 116.535C64.7069 118.391 64.1885 120.527 64.1885 122.942C64.1885 125.27 64.7069 127.391 65.7436 129.306C66.7804 131.22 68.2318 132.738 70.0979 133.857C71.9641 134.976 74.1413 135.536 76.6294 135.536ZM76.1851 115.209C77.7254 115.209 78.9991 115.681 80.0063 116.623C81.043 117.536 81.6206 118.73 81.7391 120.203H70.3645C70.6904 118.612 71.3717 117.389 72.4084 116.535C73.4748 115.651 74.7337 115.209 76.1851 115.209Z" fill="white"/>
<path d="M96.3707 135.006H102.191V127.671L105.302 124.312L112.1 135.006H118.764L109.656 120.644L118.587 110.967H111.344L102.191 120.512V101.555H96.3707V135.006Z" fill="white"/>
<path d="M137.909 135.006H143.73V120.91C143.73 119.348 144.189 118.096 145.107 117.153C146.026 116.211 147.196 115.739 148.617 115.739C150.039 115.739 151.209 116.211 152.128 117.153C153.046 118.067 153.505 119.319 153.505 120.91V135.006H159.326V119.54C159.326 117.743 158.94 116.167 158.17 114.811C157.4 113.427 156.319 112.352 154.927 111.586C153.564 110.82 151.994 110.437 150.217 110.437C148.825 110.437 147.566 110.687 146.44 111.188C145.315 111.659 144.411 112.381 143.73 113.353V101.555H137.909V135.006Z" fill="white"/>
<path d="M176.866 135.536C178.377 135.536 179.71 135.256 180.865 134.697C182.05 134.107 182.983 133.253 183.664 132.134V135.006H189.174V110.967H183.353V125.063C183.353 126.654 182.894 127.921 181.976 128.864C181.057 129.777 179.887 130.233 178.466 130.233C177.014 130.233 175.829 129.777 174.911 128.864C174.022 127.95 173.578 126.728 173.578 125.196V110.967H167.758V125.682C167.758 128.628 168.557 131.014 170.157 132.841C171.786 134.638 174.022 135.536 176.866 135.536Z" fill="white"/>
<path d="M211.78 135.536C214.12 135.536 216.208 134.991 218.044 133.901C219.881 132.782 221.332 131.279 222.399 129.394C223.465 127.479 223.998 125.343 223.998 122.986C223.998 120.63 223.465 118.509 222.399 116.623C221.332 114.708 219.881 113.206 218.044 112.116C216.208 110.996 214.134 110.437 211.824 110.437C208.684 110.437 206.211 111.424 204.404 113.397V101.555H198.583V135.006H204.048V132.31C204.937 133.341 206.048 134.137 207.381 134.697C208.743 135.256 210.21 135.536 211.78 135.536ZM211.113 130.233C209.839 130.233 208.684 129.924 207.647 129.306C206.64 128.687 205.84 127.833 205.248 126.743C204.685 125.653 204.404 124.401 204.404 122.986C204.404 121.572 204.685 120.32 205.248 119.23C205.84 118.14 206.64 117.286 207.647 116.667C208.684 116.049 209.839 115.739 211.113 115.739C212.446 115.739 213.616 116.063 214.623 116.712C215.66 117.33 216.474 118.185 217.067 119.275C217.659 120.365 217.956 121.602 217.956 122.986C217.956 124.371 217.659 125.623 217.067 126.743C216.474 127.833 215.66 128.687 214.623 129.306C213.616 129.924 212.446 130.233 211.113 130.233Z" fill="white"/>
<path d="M8.24316 173.114H9.49291V160.5H8.24316V173.114Z" fill="white"/>
<path d="M20.4493 173.314C21.0602 173.314 21.6157 173.214 22.1156 173.014C22.6266 172.803 23.0654 172.531 23.432 172.198C23.7986 171.853 24.0707 171.481 24.2485 171.081L23.182 170.515C22.9043 170.981 22.5433 171.37 22.0989 171.681C21.6546 171.992 21.1047 172.148 20.4493 172.148C19.916 172.148 19.4161 172.02 18.9496 171.764C18.483 171.509 18.0997 171.153 17.7998 170.698C17.511 170.231 17.3554 169.676 17.3332 169.032H24.3651C24.3873 168.887 24.404 168.748 24.4151 168.615C24.4262 168.471 24.4318 168.343 24.4318 168.232C24.4318 167.699 24.3373 167.182 24.1485 166.682C23.9596 166.171 23.6875 165.716 23.332 165.316C22.9765 164.905 22.5433 164.582 22.0323 164.349C21.5324 164.105 20.9603 163.983 20.3159 163.983C19.505 163.983 18.7718 164.183 18.1164 164.582C17.4721 164.982 16.9611 165.532 16.5834 166.232C16.2057 166.921 16.0168 167.715 16.0168 168.615C16.0168 169.515 16.2112 170.32 16.6 171.031C16.9888 171.742 17.5165 172.303 18.1831 172.714C18.8607 173.114 19.6161 173.314 20.4493 173.314ZM20.3159 165.149C20.8158 165.149 21.2713 165.266 21.6823 165.499C22.1045 165.732 22.4377 166.054 22.6821 166.465C22.9376 166.865 23.0709 167.332 23.082 167.865H17.3666C17.4332 167.31 17.6054 166.832 17.8831 166.432C18.1719 166.021 18.5274 165.704 18.9496 165.482C19.3717 165.26 19.8272 165.149 20.3159 165.149Z" fill="white"/>
<path d="M33.3877 173.314C34.0765 173.314 34.6986 173.175 35.254 172.897C35.8095 172.62 36.2316 172.264 36.5204 171.831V173.114H37.7702V166.982C37.7702 166.393 37.6258 165.877 37.3369 165.432C37.0592 164.977 36.6648 164.621 36.1538 164.366C35.6539 164.11 35.0763 163.983 34.4209 163.983C33.921 163.983 33.4377 164.077 32.9712 164.266C32.5046 164.444 32.088 164.688 31.7214 164.999C31.3659 165.31 31.1049 165.654 30.9382 166.032L32.0713 166.649C32.2713 166.215 32.5768 165.866 32.9878 165.599C33.3988 165.321 33.8765 165.182 34.4209 165.182C35.043 165.182 35.5484 165.349 35.9372 165.682C36.326 166.016 36.5204 166.449 36.5204 166.982V167.449L33.2878 167.982C32.2991 168.148 31.577 168.487 31.1215 168.998C30.6661 169.509 30.4383 170.109 30.4383 170.798C30.4383 171.287 30.5661 171.72 30.8216 172.098C31.0771 172.475 31.427 172.775 31.8714 172.997C32.3157 173.209 32.8212 173.314 33.3877 173.314ZM31.7714 170.748C31.7714 170.337 31.9103 169.981 32.188 169.681C32.4768 169.382 32.9434 169.176 33.5877 169.065L36.5204 168.582V169.248C36.5204 169.793 36.3927 170.287 36.1372 170.731C35.8817 171.176 35.5262 171.531 35.0707 171.798C34.6153 172.053 34.082 172.181 33.4711 172.181C32.9712 172.181 32.5601 172.042 32.238 171.764C31.9269 171.487 31.7714 171.148 31.7714 170.748Z" fill="white"/>
<path d="M44.6732 173.114H45.9229V167.615C45.9229 166.882 46.1173 166.315 46.5061 165.916C46.8949 165.516 47.4115 165.316 48.0558 165.316H48.839V164.066H48.2724C47.7281 164.066 47.256 164.16 46.8561 164.349C46.4673 164.538 46.1562 164.805 45.9229 165.149V164.183H44.6732V173.114Z" fill="white"/>
<path d="M54.636 173.114H55.8857V167.799C55.8857 166.999 56.1079 166.371 56.5523 165.916C56.9966 165.46 57.5576 165.232 58.2352 165.232C58.924 165.232 59.4794 165.46 59.9016 165.916C60.3348 166.36 60.5514 166.988 60.5514 167.799V173.114H61.8012V167.315C61.8012 166.682 61.6512 166.116 61.3513 165.616C61.0624 165.105 60.6625 164.705 60.1515 164.416C59.6516 164.127 59.0851 163.983 58.4519 163.983C57.8964 163.983 57.3965 164.099 56.9522 164.333C56.5078 164.566 56.1523 164.882 55.8857 165.282V164.183H54.636V173.114Z" fill="white"/>
<path d="M86.2642 173.214C86.3642 173.214 86.4975 173.209 86.6642 173.197C86.8308 173.186 86.9808 173.164 87.1141 173.131V171.998C87.0252 172.009 86.9197 172.02 86.7975 172.031C86.6753 172.042 86.5697 172.048 86.4809 172.048C85.9254 172.048 85.5422 171.903 85.3311 171.614C85.12 171.326 85.0145 170.959 85.0145 170.515V165.432H86.9808V164.183H85.0145V162.116H83.7648V162.866C83.7648 163.244 83.6537 163.56 83.4315 163.816C83.2093 164.06 82.9094 164.183 82.5317 164.183H82.1151V165.432H83.7648V170.515C83.7648 171.381 83.9814 172.048 84.4146 172.514C84.8479 172.981 85.4644 173.214 86.2642 173.214Z" fill="white"/>
<path d="M97.3814 173.314C97.9923 173.314 98.5478 173.214 99.0477 173.014C99.5587 172.803 99.9975 172.531 100.364 172.198C100.731 171.853 101.003 171.481 101.181 171.081L100.114 170.515C99.8364 170.981 99.4754 171.37 99.031 171.681C98.5867 171.992 98.0368 172.148 97.3814 172.148C96.8481 172.148 96.3482 172.02 95.8817 171.764C95.4151 171.509 95.0318 171.153 94.7319 170.698C94.4431 170.231 94.2876 169.676 94.2653 169.032H101.297C101.319 168.887 101.336 168.748 101.347 168.615C101.358 168.471 101.364 168.343 101.364 168.232C101.364 167.699 101.269 167.182 101.081 166.682C100.892 166.171 100.62 165.716 100.264 165.316C99.9086 164.905 99.4754 164.582 98.9644 164.349C98.4645 164.105 97.8924 163.983 97.2481 163.983C96.4371 163.983 95.7039 164.183 95.0485 164.582C94.4042 164.982 93.8932 165.532 93.5155 166.232C93.1378 166.921 92.9489 167.715 92.9489 168.615C92.9489 169.515 93.1433 170.32 93.5322 171.031C93.921 171.742 94.4486 172.303 95.1152 172.714C95.7928 173.114 96.5482 173.314 97.3814 173.314ZM97.2481 165.149C97.748 165.149 98.2034 165.266 98.6144 165.499C99.0366 165.732 99.3699 166.054 99.6142 166.465C99.8697 166.865 100.003 167.332 100.014 167.865H94.2987C94.3653 167.31 94.5375 166.832 94.8152 166.432C95.104 166.021 95.4595 165.704 95.8817 165.482C96.3038 165.26 96.7593 165.149 97.2481 165.149Z" fill="white"/>
<path d="M110.32 173.314C111.009 173.314 111.631 173.175 112.186 172.897C112.742 172.62 113.164 172.264 113.453 171.831V173.114H114.702V166.982C114.702 166.393 114.558 165.877 114.269 165.432C113.991 164.977 113.597 164.621 113.086 164.366C112.586 164.11 112.008 163.983 111.353 163.983C110.853 163.983 110.37 164.077 109.903 164.266C109.437 164.444 109.02 164.688 108.654 164.999C108.298 165.31 108.037 165.654 107.87 166.032L109.003 166.649C109.203 166.215 109.509 165.866 109.92 165.599C110.331 165.321 110.809 165.182 111.353 165.182C111.975 165.182 112.481 165.349 112.869 165.682C113.258 166.016 113.453 166.449 113.453 166.982V167.449L110.22 167.982C109.231 168.148 108.509 168.487 108.054 168.998C107.598 169.509 107.37 170.109 107.37 170.798C107.37 171.287 107.498 171.72 107.754 172.098C108.009 172.475 108.359 172.775 108.803 172.997C109.248 173.209 109.753 173.314 110.32 173.314ZM108.704 170.748C108.704 170.337 108.842 169.981 109.12 169.681C109.409 169.382 109.875 169.176 110.52 169.065L113.453 168.582V169.248C113.453 169.793 113.325 170.287 113.069 170.731C112.814 171.176 112.458 171.531 112.003 171.798C111.547 172.053 111.014 172.181 110.403 172.181C109.903 172.181 109.492 172.042 109.17 171.764C108.859 171.487 108.704 171.148 108.704 170.748Z" fill="white"/>
<path d="M125.688 173.314C126.243 173.314 126.765 173.214 127.254 173.014C127.743 172.814 128.176 172.542 128.554 172.198C128.932 171.853 129.215 171.464 129.404 171.031L128.271 170.415C128.037 170.915 127.693 171.314 127.237 171.614C126.793 171.914 126.277 172.064 125.688 172.064C125.099 172.064 124.566 171.914 124.088 171.614C123.622 171.314 123.249 170.909 122.972 170.398C122.705 169.876 122.572 169.293 122.572 168.648C122.572 167.993 122.705 167.41 122.972 166.899C123.249 166.377 123.622 165.971 124.088 165.682C124.566 165.382 125.099 165.232 125.688 165.232C126.277 165.232 126.799 165.382 127.254 165.682C127.71 165.982 128.048 166.371 128.271 166.849L129.404 166.265C129.215 165.821 128.932 165.432 128.554 165.099C128.176 164.755 127.743 164.483 127.254 164.283C126.765 164.083 126.243 163.983 125.688 163.983C124.81 163.983 124.038 164.188 123.372 164.599C122.705 164.999 122.183 165.549 121.805 166.249C121.428 166.949 121.239 167.743 121.239 168.632C121.239 169.52 121.428 170.32 121.805 171.031C122.183 171.731 122.705 172.286 123.372 172.697C124.038 173.109 124.81 173.314 125.688 173.314Z" fill="white"/>
<path d="M135.929 173.114H137.179V167.799C137.179 166.999 137.401 166.371 137.845 165.916C138.301 165.46 138.862 165.232 139.528 165.232C140.195 165.232 140.745 165.46 141.178 165.916C141.622 166.36 141.845 166.988 141.845 167.799V173.114H143.094V167.315C143.094 166.682 142.944 166.116 142.644 165.616C142.356 165.105 141.956 164.705 141.445 164.416C140.945 164.127 140.378 163.983 139.745 163.983C139.19 163.983 138.69 164.099 138.245 164.333C137.801 164.566 137.446 164.882 137.179 165.282V160.5H135.929V173.114Z" fill="white"/>
<path d="M168.374 176.78C169.196 176.78 169.924 176.602 170.557 176.247C171.201 175.902 171.701 175.425 172.057 174.814C172.423 174.214 172.606 173.531 172.606 172.764V164.183H171.357V165.532C171.001 165.055 170.546 164.677 169.99 164.399C169.435 164.121 168.829 163.983 168.174 163.983C167.33 163.983 166.574 164.183 165.908 164.582C165.252 164.982 164.73 165.521 164.341 166.199C163.964 166.876 163.775 167.637 163.775 168.482C163.775 169.315 163.964 170.076 164.341 170.765C164.73 171.442 165.258 171.981 165.924 172.381C166.591 172.781 167.341 172.981 168.174 172.981C168.829 172.981 169.44 172.836 170.007 172.548C170.574 172.259 171.023 171.853 171.357 171.331V172.764C171.357 173.364 171.218 173.869 170.94 174.281C170.662 174.692 170.296 175.003 169.84 175.214C169.385 175.425 168.885 175.53 168.341 175.53C167.63 175.53 167.046 175.375 166.591 175.064C166.136 174.753 165.819 174.386 165.641 173.964L164.491 174.58C164.791 175.225 165.28 175.752 165.958 176.163C166.647 176.574 167.452 176.78 168.374 176.78ZM168.241 171.731C167.641 171.731 167.102 171.587 166.624 171.298C166.158 170.998 165.786 170.603 165.508 170.115C165.241 169.615 165.108 169.07 165.108 168.482C165.108 167.882 165.241 167.337 165.508 166.849C165.786 166.36 166.163 165.971 166.641 165.682C167.119 165.382 167.652 165.232 168.241 165.232C168.818 165.232 169.34 165.382 169.807 165.682C170.274 165.971 170.646 166.365 170.923 166.865C171.212 167.354 171.357 167.893 171.357 168.482C171.357 169.07 171.212 169.615 170.923 170.115C170.646 170.603 170.274 170.998 169.807 171.298C169.34 171.587 168.818 171.731 168.241 171.731Z" fill="white"/>
<path d="M179.507 173.114H180.757V167.615C180.757 166.882 180.951 166.315 181.34 165.916C181.729 165.516 182.245 165.316 182.889 165.316H183.673V164.066H183.106C182.562 164.066 182.09 164.16 181.69 164.349C181.301 164.538 180.99 164.805 180.757 165.149V164.183H179.507V173.114Z" fill="white"/>
<path d="M193.652 173.314C194.485 173.314 195.241 173.114 195.918 172.714C196.607 172.314 197.157 171.764 197.568 171.064C197.979 170.354 198.184 169.543 198.184 168.632C198.184 167.732 197.985 166.932 197.585 166.232C197.196 165.532 196.657 164.982 195.968 164.582C195.291 164.183 194.519 163.983 193.652 163.983C192.786 163.983 192.008 164.188 191.319 164.599C190.642 164.999 190.103 165.549 189.703 166.249C189.303 166.949 189.103 167.743 189.103 168.632C189.103 169.531 189.303 170.337 189.703 171.048C190.114 171.748 190.664 172.303 191.353 172.714C192.041 173.114 192.808 173.314 193.652 173.314ZM193.652 172.064C193.052 172.064 192.508 171.914 192.019 171.614C191.541 171.314 191.158 170.903 190.869 170.381C190.58 169.859 190.436 169.276 190.436 168.632C190.436 167.987 190.58 167.41 190.869 166.899C191.158 166.388 191.541 165.982 192.019 165.682C192.508 165.382 193.052 165.232 193.652 165.232C194.252 165.232 194.791 165.382 195.268 165.682C195.757 165.982 196.14 166.388 196.418 166.899C196.707 167.41 196.851 167.987 196.851 168.632C196.851 169.276 196.707 169.859 196.418 170.381C196.14 170.903 195.757 171.314 195.268 171.614C194.791 171.914 194.252 172.064 193.652 172.064Z" fill="white"/>
<path d="M206.525 173.114H207.774L209.924 166.049L212.057 173.114H213.307L216.373 164.183H214.973L212.69 171.198L210.54 164.183H209.291L207.158 171.198L204.875 164.183H203.459L206.525 173.114Z" fill="white"/>
<path d="M74.4959 168.253C74.4959 169.403 73.5633 170.336 72.413 170.336C71.2626 170.336 70.3301 169.403 70.3301 168.253C70.3301 167.102 71.2626 166.17 72.413 166.17C73.5633 166.17 74.4959 167.102 74.4959 168.253Z" fill="white"/>
<path d="M154.109 168.253C154.109 169.403 153.177 170.336 152.026 170.336C150.876 170.336 149.943 169.403 149.943 168.253C149.943 167.102 150.876 166.17 152.026 166.17C153.177 166.17 154.109 167.102 154.109 168.253Z" fill="white"/>
</svg>
